<svg width="1024" height="1024" viewBox="0 0 1024 1024" fill="none" xmlns="http://www.w3.org/2000/svg">
<path d="M506.5 206C566.834 206 619.191 236.543 645.311 281.286C656.505 278.494 668.307 277 680.5 277C747.466 277 802.65 322.029 810.135 380.021C810.755 380.008 811.377 380 812 380C870.542 380 918 435.069 918 503C918 570.931 870.542 626 812 626C811.666 626 811.333 625.996 811 625.992V626H370V625.883C367.844 625.959 365.677 626 363.5 626C275.411 626 204 563.096 204 485.5C204 416.104 261.116 358.461 336.197 347.053L352.577 320.574C365.945 255.394 429.773 206 506.5 206Z" fill="#EFEAEA" style="fill:#EFEAEA;fill:color(display-p3 0.9380 0.9179 0.9179);fill-opacity:1;"/>
</svg>
