<svg width="1024" height="1024" viewBox="0 0 1024 1024" fill="none" xmlns="http://www.w3.org/2000/svg">
<path d="M388.5 355C448.834 355 501.191 385.543 527.311 430.286C538.505 427.494 550.307 426 562.5 426C629.466 426 684.65 471.029 692.135 529.021C692.755 529.008 693.377 529 694 529C752.542 529 800 584.069 800 652C800 719.931 752.542 775 694 775C693.666 775 693.333 774.996 693 774.992V775H252V774.883C249.844 774.959 247.677 775 245.5 775C157.411 775 86 712.096 86 634.5C86 565.104 143.116 507.461 218.197 496.053L234.577 469.574C247.945 404.394 311.773 355 388.5 355Z" fill="#D9D9D9" style="fill:#D9D9D9;fill:color(display-p3 0.8510 0.8510 0.8510);fill-opacity:1;"/>
</svg>
